<?xml version="1.0" standalone="no"?>
<!DOCTYPE svg PUBLIC "-//W3C//DTD SVG 20010904//EN"
 "http://www.w3.org/TR/2001/REC-SVG-20010904/DTD/svg10.dtd">
<svg version="1.0" xmlns="http://www.w3.org/2000/svg"
 width="1174.000000pt" height="562.000000pt" viewBox="0 0 1174.000000 562.000000"
 preserveAspectRatio="xMidYMid meet">

<g transform="translate(0.000000,562.000000) scale(0.100000,-0.100000)"
fill="#342e37" stroke="none">
<path d="M10703 5306 c-238 -60 -395 -292 -368 -544 29 -274 233 -452 520
-452 202 0 369 92 460 255 154 273 28 621 -263 728 -71 26 -269 33 -349 13z"/>
<path d="M7210 5020 c-63 -9 -130 -21 -147 -24 l-33 -8 0 -1551 c0 -1280 3
-1561 14 -1603 48 -180 194 -324 453 -445 219 -103 419 -152 685 -171 309 -22
642 20 858 108 390 158 615 389 750 769 60 168 89 361 90 591 0 280 -51 517
-162 738 -146 293 -401 519 -713 630 -294 105 -647 107 -939 6 -33 -11 -63
-20 -68 -20 -4 0 -8 120 -8 268 -1 345 -10 447 -50 528 -54 111 -131 163 -278
190 -104 18 -312 16 -452 -6z m1275 -1652 c127 -26 244 -111 310 -223 129
-217 138 -649 20 -899 -36 -76 -130 -175 -202 -214 -97 -51 -170 -65 -313 -59
-130 5 -218 26 -287 69 l-33 20 0 616 0 617 79 32 c139 57 285 71 426 41z"/>
<path d="M850 4104 c-109 -17 -158 -31 -245 -74 -55 -26 -120 -65 -144 -87
l-43 -38 82 -320 c153 -602 295 -1036 467 -1435 186 -429 281 -566 454 -648
l56 -26 -104 -118 c-117 -132 -352 -359 -490 -472 -51 -42 -93 -81 -93 -86 0
-74 75 -248 140 -322 149 -172 406 -221 691 -132 256 80 505 357 824 919 305
534 603 1295 769 1960 68 272 89 541 51 650 -44 129 -153 199 -349 225 -143
19 -334 -11 -487 -78 l-45 -20 -23 -123 c-101 -553 -413 -1714 -461 -1714 -8
0 -97 293 -246 813 -142 493 -246 837 -265 875 -58 118 -118 171 -239 216 -84
30 -221 46 -300 35z"/>
<path d="M3930 4050 c-47 -5 -112 -15 -145 -22 l-60 -13 -3 -835 c-3 -870 2
-1002 38 -1145 92 -360 336 -611 710 -731 507 -163 1275 -97 1684 144 93 56
178 137 212 204 55 109 54 84 54 1113 0 839 -2 958 -16 1006 -30 104 -95 193
-168 231 -90 46 -130 52 -356 52 -203 0 -299 -9 -387 -36 l-33 -10 -2 -991 -3
-991 -73 -23 c-159 -50 -359 -50 -487 -1 -71 27 -142 89 -167 147 -47 106 -47
118 -48 846 -1 742 -2 761 -53 861 -49 97 -108 147 -213 179 -60 19 -358 28
-484 15z"/>
<path d="M10550 4040 c-69 -11 -135 -22 -148 -25 l-22 -5 2 -1233 3 -1232 24
-59 c47 -117 155 -196 296 -216 150 -21 439 -5 613 35 l22 5 0 1148 c0 706 -4
1181 -10 1235 -22 188 -107 300 -262 344 -88 24 -367 26 -518 3z"/>
</g>
</svg>
