<?xml version="1.0" standalone="no"?>
<!DOCTYPE svg PUBLIC "-//W3C//DTD SVG 20010904//EN"
 "http://www.w3.org/TR/2001/REC-SVG-20010904/DTD/svg10.dtd">
<svg version="1.0" xmlns="http://www.w3.org/2000/svg"
 width="460.000000pt" height="460.000000pt" viewBox="0 0 460.000000 460.000000"
 preserveAspectRatio="xMidYMid meet">

<g transform="translate(0.000000,460.000000) scale(0.100000,-0.100000)"
fill="#ffffff" stroke="none">
<path d="M1650 4130 c0 -5 -5 -10 -11 -10 -13 0 -32 -19 -47 -47 -9 -15 -12
-131 -12 -392 0 -291 -3 -371 -13 -371 -6 0 -158 147 -337 326 -179 179 -337
332 -352 340 -66 35 -104 16 -230 -114 l-98 -101 0 -52 0 -53 340 -341 c187
-187 340 -344 340 -347 0 -4 -170 -8 -377 -10 -409 -3 -404 -3 -437 -59 -13
-22 -16 -57 -16 -173 0 -156 7 -184 49 -213 24 -17 78 -18 751 -21 497 -2 737
0 762 8 20 6 46 22 57 37 21 25 21 34 21 770 0 806 2 780 -54 817 -21 13 -53
16 -181 16 -97 0 -155 -4 -155 -10z"/>
<path d="M2564 4106 l-39 -34 0 -749 c0 -809 -2 -785 53 -814 20 -12 162 -14
775 -14 l749 0 34 39 34 39 0 152 0 152 -34 39 -34 39 -381 3 c-252 2 -381 7
-381 13 0 6 144 155 320 331 177 177 330 332 340 346 24 29 26 72 6 110 -17
32 -191 205 -223 221 -34 17 -78 13 -108 -11 -15 -12 -171 -165 -346 -340
-175 -175 -323 -318 -328 -318 -6 0 -11 141 -13 381 l-3 381 -39 34 -39 34
-152 0 -152 0 -39 -34z"/>
<path d="M434 1976 l-34 -34 0 -161 0 -161 29 -32 29 -33 386 -3 c246 -2 386
-6 386 -13 0 -5 -153 -163 -340 -350 l-340 -340 0 -51 0 -52 113 -113 113
-113 51 0 50 0 341 340 c187 187 345 340 351 340 7 0 11 -126 13 -386 l3 -386
33 -29 32 -29 161 0 161 0 34 34 34 34 0 752 0 752 -34 34 -34 34 -752 0 -752
0 -34 -34z"/>
<path d="M2558 1981 l-33 -29 -3 -742 c-3 -817 -5 -793 59 -825 42 -22 311
-21 348 1 56 33 56 28 59 437 2 207 6 377 10 377 3 0 160 -153 347 -340 l341
-340 50 0 c49 0 52 1 142 87 142 136 163 175 128 241 -8 15 -161 173 -340 352
-179 179 -326 331 -326 337 0 10 80 13 370 13 249 0 377 4 393 11 14 6 31 22
38 35 7 13 16 24 21 24 4 0 8 72 8 160 l0 159 -35 36 -36 35 -754 0 -755 0
-32 -29z"/>
</g>
</svg>
