<?xml version="1.0" standalone="no"?>
<!DOCTYPE svg PUBLIC "-//W3C//DTD SVG 20010904//EN"
 "http://www.w3.org/TR/2001/REC-SVG-20010904/DTD/svg10.dtd">
<svg version="1.0" xmlns="http://www.w3.org/2000/svg"
 width="1666.000000pt" height="612.000000pt" viewBox="0 0 1666.000000 612.000000"
 preserveAspectRatio="xMidYMid meet">

<g transform="translate(0.000000,612.000000) scale(0.100000,-0.100000)"
fill="#ffffff" stroke="none">
<path d="M15443 5586 c-238 -60 -395 -292 -368 -544 29 -274 233 -452 520
-452 202 0 369 92 460 255 154 273 28 621 -263 728 -71 26 -269 33 -349 13z"/>
<path d="M11950 5300 c-63 -9 -130 -21 -147 -24 l-33 -8 0 -1551 c0 -1280 3
-1561 14 -1603 48 -180 194 -324 453 -445 219 -103 419 -152 685 -171 309 -22
642 20 858 108 390 158 615 389 750 769 60 168 89 361 90 591 0 280 -51 517
-162 738 -146 293 -401 519 -713 630 -294 105 -647 107 -939 6 -33 -11 -63
-20 -68 -20 -4 0 -8 120 -8 268 -1 345 -10 447 -50 528 -54 111 -131 163 -278
190 -104 18 -312 16 -452 -6z m1275 -1652 c127 -26 244 -111 310 -223 129
-217 138 -649 20 -899 -36 -76 -130 -175 -202 -214 -97 -51 -170 -65 -313 -59
-130 5 -218 26 -287 69 l-33 20 0 616 0 617 79 32 c139 57 285 71 426 41z"/>
<path d="M1830 4970 c0 -5 -5 -10 -11 -10 -13 0 -32 -19 -47 -47 -9 -15 -12
-131 -12 -392 0 -291 -3 -371 -13 -371 -6 0 -158 147 -337 326 -179 179 -337
332 -352 340 -66 35 -104 16 -230 -114 l-98 -101 0 -52 0 -53 340 -341 c187
-187 340 -344 340 -347 0 -4 -170 -8 -377 -10 -409 -3 -404 -3 -437 -59 -13
-22 -16 -57 -16 -173 0 -156 7 -184 49 -213 24 -17 78 -18 751 -21 497 -2 737
0 762 8 20 6 46 22 57 37 21 25 21 34 21 770 0 806 2 780 -54 817 -21 13 -53
16 -181 16 -97 0 -155 -4 -155 -10z"/>
<path d="M2744 4946 l-39 -34 0 -749 c0 -613 2 -755 14 -775 29 -55 5 -53 814
-53 l749 0 34 39 34 39 0 152 0 152 -34 39 -34 39 -381 3 c-252 2 -381 7 -381
13 0 6 144 155 320 331 177 177 330 332 340 346 24 29 26 72 6 110 -17 32
-191 205 -223 221 -34 17 -78 13 -108 -11 -15 -12 -171 -165 -346 -340 -175
-175 -323 -318 -328 -318 -6 0 -11 141 -13 381 l-3 381 -39 34 -39 34 -152 0
-152 0 -39 -34z"/>
<path d="M5590 4384 c-109 -17 -158 -31 -245 -74 -55 -26 -120 -65 -144 -87
l-43 -38 82 -320 c153 -602 295 -1036 467 -1435 186 -429 281 -566 454 -648
l56 -26 -104 -118 c-117 -132 -352 -359 -490 -472 -51 -42 -93 -81 -93 -86 0
-74 75 -248 140 -322 149 -172 406 -221 691 -132 256 80 505 357 824 919 305
534 603 1295 769 1960 68 272 89 541 51 650 -44 129 -153 199 -349 225 -143
19 -334 -11 -487 -78 l-45 -20 -23 -123 c-101 -553 -413 -1714 -461 -1714 -8
0 -97 293 -246 813 -142 493 -246 837 -265 875 -58 118 -118 171 -239 216 -84
30 -221 46 -300 35z"/>
<path d="M8670 4330 c-47 -5 -112 -15 -145 -22 l-60 -13 -3 -835 c-3 -870 2
-1002 38 -1145 92 -360 336 -611 710 -731 507 -163 1275 -97 1684 144 93 56
178 137 212 204 55 109 54 84 54 1113 0 839 -2 958 -16 1006 -30 104 -95 193
-168 231 -90 46 -130 52 -356 52 -203 0 -299 -9 -387 -36 l-33 -10 -2 -991 -3
-991 -73 -23 c-159 -50 -359 -50 -487 -1 -71 27 -142 89 -167 147 -47 106 -47
118 -48 846 -1 742 -2 761 -53 861 -49 97 -108 147 -213 179 -60 19 -358 28
-484 15z"/>
<path d="M15290 4320 c-69 -11 -135 -22 -148 -25 l-22 -5 2 -1233 3 -1232 24
-59 c47 -117 155 -196 296 -216 150 -21 439 -5 613 35 l22 5 0 1148 c0 706 -4
1181 -10 1235 -22 188 -107 300 -262 344 -88 24 -367 26 -518 3z"/>
<path d="M614 2816 l-34 -34 0 -161 0 -161 29 -32 29 -33 386 -3 c246 -2 386
-6 386 -13 0 -5 -153 -163 -340 -350 l-340 -340 0 -51 0 -52 113 -113 113
-113 51 0 50 0 341 340 c187 187 345 340 351 340 7 0 11 -126 13 -386 l3 -386
33 -29 32 -29 161 0 161 0 34 34 34 34 0 752 0 752 -34 34 -34 34 -752 0 -752
0 -34 -34z"/>
<path d="M2738 2821 l-33 -29 -3 -742 c-3 -817 -5 -793 59 -825 42 -22 311
-21 348 1 56 33 56 28 59 437 2 207 6 377 10 377 3 0 160 -153 347 -340 l341
-340 50 0 c49 0 52 1 142 87 142 136 163 175 128 241 -8 15 -161 173 -340 352
-179 179 -326 331 -326 337 0 10 80 13 370 13 249 0 377 4 393 11 14 6 31 22
38 35 7 13 16 24 21 24 4 0 8 72 8 160 l0 159 -35 36 -36 35 -754 0 -755 0
-32 -29z"/>
</g>
</svg>
